<mxfile host="app.diagrams.net" modified="2022-11-30T23:43:08.155Z" agent="5.0 (Windows NT 10.0; Win64; x64) AppleWebKit/537.36 (KHTML, like Gecko) Chrome/107.0.0.0 Safari/537.36" etag="i0f6RRoMbk8esZsjFdz-" version="20.2.8" type="github">
  <diagram id="C5RBs43oDa-KdzZeNtuy" name="Page-1">
    <mxGraphModel dx="2222" dy="786" grid="0" gridSize="10" guides="1" tooltips="1" connect="1" arrows="1" fold="1" page="0" pageScale="1" pageWidth="827" pageHeight="1169" background="none" math="0" shadow="1">
      <root>
        <mxCell id="WIyWlLk6GJQsqaUBKTNV-0" />
        <mxCell id="WIyWlLk6GJQsqaUBKTNV-1" parent="WIyWlLk6GJQsqaUBKTNV-0" />
        <mxCell id="2cqZckqWM9fmUrcJ0AvB-0" value="Usuario" style="swimlane;fontStyle=1;align=center;verticalAlign=top;childLayout=stackLayout;horizontal=1;startSize=26;horizontalStack=0;resizeParent=1;resizeParentMax=0;resizeLast=0;collapsible=1;marginBottom=0;" vertex="1" parent="WIyWlLk6GJQsqaUBKTNV-1">
          <mxGeometry x="-180" y="110" width="510" height="190" as="geometry">
            <mxRectangle x="440" y="120" width="90" height="30" as="alternateBounds" />
          </mxGeometry>
        </mxCell>
        <mxCell id="2cqZckqWM9fmUrcJ0AvB-1" value="- nome: String&#xa;- email: String&#xa;- senha: String&#xa;- idade: int&#xa;- veiculo: ArrayList&lt;Veiculo&gt;" style="text;strokeColor=none;fillColor=none;align=left;verticalAlign=top;spacingLeft=4;spacingRight=4;overflow=hidden;rotatable=0;points=[[0,0.5],[1,0.5]];portConstraint=eastwest;" vertex="1" parent="2cqZckqWM9fmUrcJ0AvB-0">
          <mxGeometry y="26" width="510" height="84" as="geometry" />
        </mxCell>
        <mxCell id="2cqZckqWM9fmUrcJ0AvB-2" value="" style="line;strokeWidth=1;fillColor=none;align=left;verticalAlign=middle;spacingTop=-1;spacingLeft=3;spacingRight=3;rotatable=0;labelPosition=right;points=[];portConstraint=eastwest;strokeColor=inherit;" vertex="1" parent="2cqZckqWM9fmUrcJ0AvB-0">
          <mxGeometry y="110" width="510" height="8" as="geometry" />
        </mxCell>
        <mxCell id="2cqZckqWM9fmUrcJ0AvB-3" value="+ Usuario()&#xa;+ Usuario(nome: String, email: String, senha: String, idade: int, veiculo: ArrayList&lt;Veiculo&gt;)&#xa;" style="text;strokeColor=none;fillColor=none;align=left;verticalAlign=top;spacingLeft=4;spacingRight=4;overflow=hidden;rotatable=0;points=[[0,0.5],[1,0.5]];portConstraint=eastwest;" vertex="1" parent="2cqZckqWM9fmUrcJ0AvB-0">
          <mxGeometry y="118" width="510" height="72" as="geometry" />
        </mxCell>
        <mxCell id="2cqZckqWM9fmUrcJ0AvB-4" value="Vaga" style="swimlane;fontStyle=1;align=center;verticalAlign=top;childLayout=stackLayout;horizontal=1;startSize=26;horizontalStack=0;resizeParent=1;resizeParentMax=0;resizeLast=0;collapsible=1;marginBottom=0;" vertex="1" parent="WIyWlLk6GJQsqaUBKTNV-1">
          <mxGeometry x="-480" y="130" width="160" height="104" as="geometry" />
        </mxCell>
        <mxCell id="2cqZckqWM9fmUrcJ0AvB-5" value="- usuario: Usuario&#xa;- localizacao: String" style="text;strokeColor=none;fillColor=none;align=left;verticalAlign=top;spacingLeft=4;spacingRight=4;overflow=hidden;rotatable=0;points=[[0,0.5],[1,0.5]];portConstraint=eastwest;" vertex="1" parent="2cqZckqWM9fmUrcJ0AvB-4">
          <mxGeometry y="26" width="160" height="44" as="geometry" />
        </mxCell>
        <mxCell id="2cqZckqWM9fmUrcJ0AvB-6" value="" style="line;strokeWidth=1;fillColor=none;align=left;verticalAlign=middle;spacingTop=-1;spacingLeft=3;spacingRight=3;rotatable=0;labelPosition=right;points=[];portConstraint=eastwest;strokeColor=inherit;" vertex="1" parent="2cqZckqWM9fmUrcJ0AvB-4">
          <mxGeometry y="70" width="160" height="8" as="geometry" />
        </mxCell>
        <mxCell id="2cqZckqWM9fmUrcJ0AvB-7" value="+ method(type): type" style="text;strokeColor=none;fillColor=none;align=left;verticalAlign=top;spacingLeft=4;spacingRight=4;overflow=hidden;rotatable=0;points=[[0,0.5],[1,0.5]];portConstraint=eastwest;" vertex="1" parent="2cqZckqWM9fmUrcJ0AvB-4">
          <mxGeometry y="78" width="160" height="26" as="geometry" />
        </mxCell>
        <mxCell id="2cqZckqWM9fmUrcJ0AvB-27" style="edgeStyle=orthogonalEdgeStyle;rounded=0;orthogonalLoop=1;jettySize=auto;html=1;entryX=0.522;entryY=1.024;entryDx=0;entryDy=0;entryPerimeter=0;" edge="1" parent="WIyWlLk6GJQsqaUBKTNV-1" source="2cqZckqWM9fmUrcJ0AvB-12" target="2cqZckqWM9fmUrcJ0AvB-26">
          <mxGeometry relative="1" as="geometry" />
        </mxCell>
        <mxCell id="2cqZckqWM9fmUrcJ0AvB-12" value="VeiculoUsuario" style="swimlane;fontStyle=1;align=center;verticalAlign=top;childLayout=stackLayout;horizontal=1;startSize=26;horizontalStack=0;resizeParent=1;resizeParentMax=0;resizeLast=0;collapsible=1;marginBottom=0;" vertex="1" parent="WIyWlLk6GJQsqaUBKTNV-1">
          <mxGeometry x="-110" y="623" width="370" height="122" as="geometry" />
        </mxCell>
        <mxCell id="2cqZckqWM9fmUrcJ0AvB-13" value="- cor: String&#xa;- placa: String" style="text;strokeColor=none;fillColor=none;align=left;verticalAlign=top;spacingLeft=4;spacingRight=4;overflow=hidden;rotatable=0;points=[[0,0.5],[1,0.5]];portConstraint=eastwest;" vertex="1" parent="2cqZckqWM9fmUrcJ0AvB-12">
          <mxGeometry y="26" width="370" height="46" as="geometry" />
        </mxCell>
        <mxCell id="2cqZckqWM9fmUrcJ0AvB-14" value="" style="line;strokeWidth=1;fillColor=none;align=left;verticalAlign=middle;spacingTop=-1;spacingLeft=3;spacingRight=3;rotatable=0;labelPosition=right;points=[];portConstraint=eastwest;strokeColor=inherit;" vertex="1" parent="2cqZckqWM9fmUrcJ0AvB-12">
          <mxGeometry y="72" width="370" height="8" as="geometry" />
        </mxCell>
        <mxCell id="2cqZckqWM9fmUrcJ0AvB-15" value="+ Veiculo()&#xa;+ Veiculo(marca: String, modelo: String, cor: String, placa: String)" style="text;strokeColor=none;fillColor=none;align=left;verticalAlign=top;spacingLeft=4;spacingRight=4;overflow=hidden;rotatable=0;points=[[0,0.5],[1,0.5]];portConstraint=eastwest;" vertex="1" parent="2cqZckqWM9fmUrcJ0AvB-12">
          <mxGeometry y="80" width="370" height="42" as="geometry" />
        </mxCell>
        <mxCell id="2cqZckqWM9fmUrcJ0AvB-20" style="edgeStyle=orthogonalEdgeStyle;shape=link;rounded=0;orthogonalLoop=1;jettySize=auto;html=1;" edge="1" parent="WIyWlLk6GJQsqaUBKTNV-1" source="2cqZckqWM9fmUrcJ0AvB-5" target="2cqZckqWM9fmUrcJ0AvB-1">
          <mxGeometry relative="1" as="geometry" />
        </mxCell>
        <mxCell id="2cqZckqWM9fmUrcJ0AvB-23" value="Veiculo" style="swimlane;fontStyle=1;align=center;verticalAlign=top;childLayout=stackLayout;horizontal=1;startSize=26;horizontalStack=0;resizeParent=1;resizeParentMax=0;resizeLast=0;collapsible=1;marginBottom=0;" vertex="1" parent="WIyWlLk6GJQsqaUBKTNV-1">
          <mxGeometry x="330" y="390" width="370" height="117" as="geometry" />
        </mxCell>
        <mxCell id="2cqZckqWM9fmUrcJ0AvB-24" value="- marca: String&#xa;- modelo: String" style="text;strokeColor=none;fillColor=none;align=left;verticalAlign=top;spacingLeft=4;spacingRight=4;overflow=hidden;rotatable=0;points=[[0,0.5],[1,0.5]];portConstraint=eastwest;" vertex="1" parent="2cqZckqWM9fmUrcJ0AvB-23">
          <mxGeometry y="26" width="370" height="41" as="geometry" />
        </mxCell>
        <mxCell id="2cqZckqWM9fmUrcJ0AvB-25" value="" style="line;strokeWidth=1;fillColor=none;align=left;verticalAlign=middle;spacingTop=-1;spacingLeft=3;spacingRight=3;rotatable=0;labelPosition=right;points=[];portConstraint=eastwest;strokeColor=inherit;" vertex="1" parent="2cqZckqWM9fmUrcJ0AvB-23">
          <mxGeometry y="67" width="370" height="8" as="geometry" />
        </mxCell>
        <mxCell id="2cqZckqWM9fmUrcJ0AvB-26" value="+ Veiculo()&#xa;+ Veiculo(marca: String, modelo: String)" style="text;strokeColor=none;fillColor=none;align=left;verticalAlign=top;spacingLeft=4;spacingRight=4;overflow=hidden;rotatable=0;points=[[0,0.5],[1,0.5]];portConstraint=eastwest;" vertex="1" parent="2cqZckqWM9fmUrcJ0AvB-23">
          <mxGeometry y="75" width="370" height="42" as="geometry" />
        </mxCell>
        <mxCell id="2cqZckqWM9fmUrcJ0AvB-29" style="edgeStyle=orthogonalEdgeStyle;shape=link;rounded=0;orthogonalLoop=1;jettySize=auto;html=1;" edge="1" parent="WIyWlLk6GJQsqaUBKTNV-1" source="2cqZckqWM9fmUrcJ0AvB-13" target="2cqZckqWM9fmUrcJ0AvB-0">
          <mxGeometry relative="1" as="geometry" />
        </mxCell>
      </root>
    </mxGraphModel>
  </diagram>
</mxfile>
